<svg id="Capa_1" enable-background="new 0 0 512 512" height="512" viewBox="0 0 512 512" width="512" xmlns="http://www.w3.org/2000/svg"><g><path d="m156.098 135.285h33.301v-35.445c0-3.414 2.767-6.181 6.181-6.181h4.225v-35.383h-22.894c-11.495 0-20.813 9.318-20.813 20.813z" fill="#80b6fc"/><path d="m156.098 110.309h33.301v24.976h-33.301z" fill="#62a4fb"/><path d="m355.902 135.285h-33.301v-35.445c0-3.414-2.767-6.181-6.181-6.181h-4.225v-35.383h22.894c11.495 0 20.813 9.318 20.813 20.813z" fill="#80b6fc"/><path d="m322.602 110.309h33.301v24.976h-33.301z" fill="#62a4fb"/><path d="m512 247.676v24.972c0 4.605-3.729 8.324-8.324 8.324h-495.352c-4.595 0-8.324-3.719-8.324-8.324v-24.972c0-4.595 3.729-8.324 8.324-8.324h77.006l20.82 10.508 20.81-10.508h258.08l20.81 10.508 20.82-10.508h77.006c4.595 0 8.324 3.729 8.324 8.324z" fill="#f7e365"/><path d="m503.675 239.35h-33.301c4.598 0 8.325 3.727 8.325 8.325v24.976c0 4.598-3.727 8.325-8.325 8.325h33.301c4.598 0 8.325-3.727 8.325-8.325v-24.976c0-4.598-3.727-8.325-8.325-8.325z" fill="#f3d332"/><path d="m495.35 239.35h-478.7l17.467-87.334c1.946-9.729 10.488-16.731 20.409-16.731h402.948c9.921 0 18.463 7.003 20.409 16.731z" fill="#e9a761"/><path d="m477.883 152.016c-1.946-9.728-10.488-16.731-20.409-16.731h-31.219c9.921 0 18.463 7.003 20.409 16.731l17.467 87.334h31.22z" fill="#e69642"/><path d="m16.65 280.976h478.7l-18.756 168.802c-1.171 10.54-10.08 18.515-20.686 18.515h-399.816c-10.605 0-19.515-7.974-20.686-18.515z" fill="#e9a761"/><path d="m339.252 468.293-18.272-38.132c-3.461-7.223-10.76-11.819-18.77-11.819h-92.422c-8.01 0-15.308 4.596-18.77 11.819l-18.272 38.132z" fill="#e1761c"/><path d="m464.13 280.976-18.756 168.802c-1.171 10.54-10.081 18.515-20.686 18.515h31.22c10.605 0 19.515-7.974 20.686-18.515l18.756-168.802z" fill="#e69642"/><path d="m385.041 239.35h41.626v41.626h-41.626z" fill="#80b6fc"/><path d="m405.854 366.309c-11.495 0-20.813-9.318-20.813-20.813v-31.22h41.626v31.22c0 11.495-9.319 20.813-20.813 20.813z" fill="#80b6fc"/><path d="m385.041 314.276h41.626v24.976h-41.626z" fill="#62a4fb"/><path d="m428.748 314.276h-45.789c-5.747 0-10.406-4.659-10.406-10.406v-12.488c0-5.747 4.659-10.407 10.406-10.407h45.789c5.747 0 10.406 4.659 10.406 10.407v12.488c0 5.747-4.659 10.406-10.406 10.406z" fill="#d3effd"/><path d="m85.333 239.35h41.626v41.626h-41.626z" fill="#80b6fc" transform="matrix(-1 0 0 -1 212.293 520.325)"/><path d="m106.146 366.309c11.495 0 20.813-9.318 20.813-20.813v-31.22h-41.626v31.22c0 11.495 9.319 20.813 20.813 20.813z" fill="#80b6fc"/><path d="m85.333 314.276h41.626v24.976h-41.626z" fill="#62a4fb"/><path d="m83.252 314.276h45.789c5.747 0 10.407-4.659 10.407-10.406v-12.488c0-5.747-4.659-10.407-10.407-10.407h-45.789c-5.747 0-10.407 4.659-10.407 10.407v12.488c.001 5.747 4.66 10.406 10.407 10.406z" fill="#d3effd"/><path d="m189.398 54.114v29.138c0 5.747 4.659 10.407 10.406 10.407h112.39c5.747 0 10.406-4.659 10.406-10.407v-29.138c0-5.747-4.659-10.407-10.406-10.407h-112.39c-5.746 0-10.406 4.659-10.406 10.407z" fill="#f7e365"/><path d="m312.195 43.707h-20.813c5.747 0 10.407 4.659 10.407 10.407v29.138c0 5.747-4.659 10.407-10.407 10.407h20.813c5.747 0 10.406-4.659 10.406-10.407v-29.138c.001-5.748-4.659-10.407-10.406-10.407z" fill="#f3d332"/></g></svg>